<?xml version="1.0" standalone="no"?>
<!DOCTYPE svg PUBLIC "-//W3C//DTD SVG 20010904//EN"
 "http://www.w3.org/TR/2001/REC-SVG-20010904/DTD/svg10.dtd">
<svg version="1.0" xmlns="http://www.w3.org/2000/svg"
 width="1000.000000pt" height="1000.000000pt" viewBox="0 0 1000.000000 1000.000000"
 preserveAspectRatio="xMidYMid meet">
<metadata>
Created by potrace 1.11, written by Peter Selinger 2001-2013
</metadata>
<g transform="translate(0.000000,1000.000000) scale(0.100000,-0.100000)"
fill="#000000" stroke="none">
<path d="M2136 7988 c-99 -21 -195 -108 -221 -203 -5 -16 -9 -749 -10 -1627
-1 -1430 1 -1598 15 -1599 8 0 42 0 75 0 33 1 66 1 73 1 6 0 42 0 80 0 37 0
85 0 107 -1 22 -1 46 -1 53 0 20 2 40 1 75 -1 17 -2 42 0 55 4 12 4 22 4 22 0
0 -6 20 -7 76 -3 8 1 10 158 10 537 -1 295 3 538 7 541 12 7 144 6 156 -1 6
-4 11 -3 11 2 0 6 14 7 35 2 19 -4 37 -5 39 -1 2 3 28 5 58 3 29 -1 62 -2 73
-1 34 2 49 2 80 0 17 -1 98 -1 182 0 83 0 156 -2 162 -6 6 -3 11 -2 11 3 0 6
14 7 35 2 19 -4 37 -5 39 -1 2 3 28 5 58 3 29 -1 62 -2 73 -1 34 1 49 2 80 0
17 -1 67 -1 113 -1 45 1 86 -2 91 -5 5 -3 12 -2 14 2 6 9 132 7 147 -2 6 -3
10 -3 10 2 0 9 123 8 146 -1 7 -3 15 -2 18 2 5 8 132 6 146 -3 6 -3 10 -3 10
2 0 9 172 8 195 -1 8 -3 16 -2 19 2 2 4 28 6 58 4 29 -1 62 -2 73 -1 35 2 49
2 80 0 17 -1 62 -1 102 0 39 1 76 -2 82 -5 6 -4 11 -3 11 2 0 6 14 7 35 2 19
-4 37 -5 39 -1 2 3 28 5 58 3 29 -1 62 -2 73 -1 35 2 49 2 80 0 17 -1 62 -1
102 0 39 1 76 -2 82 -5 6 -4 11 -3 11 2 0 6 14 7 34 2 19 -4 38 -5 41 -2 7 7
242 5 254 -3 5 -3 12 -2 14 2 6 9 132 7 147 -2 6 -3 10 -3 10 2 0 9 123 8 146
-1 7 -3 15 -2 18 2 5 8 132 6 146 -3 6 -3 10 -3 10 2 0 9 262 8 286 -1 7 -3
14 -1 14 3 0 5 16 5 35 1 19 -4 37 -5 39 -1 2 3 28 5 58 3 29 -1 62 -2 73 -1
34 1 49 2 80 0 17 -1 74 -1 128 -1 l97 0 0 319 c0 354 4 335 -65 321 -17 -4
-39 -4 -50 0 -11 4 -30 4 -42 -1 -12 -5 -25 -4 -28 0 -3 5 -20 6 -38 2 -18 -5
-41 -5 -52 -1 -11 4 -30 4 -42 -1 -12 -5 -25 -4 -28 0 -3 5 -20 6 -38 2 -18
-5 -41 -5 -52 -1 -11 4 -30 4 -42 -1 -12 -5 -25 -4 -28 0 -3 5 -20 6 -38 2
-18 -5 -41 -5 -52 -1 -11 4 -24 5 -28 3 -5 -3 -45 -4 -90 -4 -79 2 -92 2 -119
0 -16 0 -121 0 -172 1 -22 1 -43 3 -48 6 -4 3 -8 2 -8 -3 0 -4 -42 -7 -92 -6
-128 3 -141 3 -158 2 -18 0 -119 0 -174 1 -22 1 -43 3 -48 6 -4 3 -8 2 -8 -3
0 -4 -42 -7 -92 -6 -128 3 -141 3 -158 2 -18 0 -119 0 -174 1 -22 1 -43 3 -48
6 -4 3 -8 2 -8 -3 0 -4 -42 -7 -92 -6 -128 3 -141 3 -158 2 -18 0 -119 0 -174
1 -22 1 -43 3 -48 6 -4 3 -8 2 -8 -3 0 -4 -42 -7 -92 -6 -128 3 -141 3 -158 2
-18 0 -119 0 -174 1 -22 1 -43 3 -48 6 -4 3 -8 2 -8 -3 0 -7 -152 -7 -225 0
-16 2 -44 0 -60 -3 -17 -4 -39 -4 -50 0 -11 4 -30 4 -42 -1 -12 -5 -25 -4 -28
0 -3 5 -20 6 -38 2 -18 -5 -41 -5 -52 -1 -11 4 -30 4 -42 -1 -12 -5 -25 -4
-28 0 -3 5 -20 6 -38 2 -18 -5 -41 -5 -52 -1 -11 4 -30 4 -42 -1 -12 -5 -25
-4 -28 0 -3 5 -20 6 -38 2 -18 -5 -41 -5 -52 -1 -11 4 -30 4 -42 -1 -12 -5
-25 -4 -28 0 -3 5 -20 6 -38 2 -18 -5 -41 -5 -52 -1 -11 4 -30 4 -42 -1 -12
-5 -25 -4 -28 0 -3 5 -20 6 -38 2 -18 -5 -41 -5 -52 -1 -11 4 -30 4 -42 -1
-12 -5 -25 -4 -28 0 -3 5 -20 6 -38 2 -18 -5 -41 -5 -52 -1 -11 4 -30 4 -42
-1 -12 -5 -25 -4 -28 0 -3 5 -20 6 -38 2 -18 -5 -41 -5 -52 -1 -11 4 -29 4
-40 0 -52 -19 -50 -35 -49 525 1 286 2 527 3 535 1 14 243 15 2259 15 l2257 0
3 320 2 320 -2449 0 c-1347 0 -2465 -3 -2485 -7z"/>
<path d="M7454 6283 l0 -1718 310 1 c171 1 316 2 321 3 8 1 11 493 10 1609 -1
1569 -2 1608 -21 1647 -33 70 -80 117 -144 148 -41 20 -64 22 -261 25 l-215 3
0 -1718z"/>
<path d="M297 5754 c-69 -14 -135 -46 -176 -86 -39 -38 -96 -118 -84 -118 4 0
3 -4 -2 -8 -32 -22 -35 -88 -32 -647 l2 -560 26 -55 c22 -47 83 -120 130 -155
19 -15 85 -45 112 -52 12 -3 89 -7 170 -8 82 -2 151 -6 155 -9 7 -8 9 -20 16
-115 3 -42 8 -101 11 -131 3 -30 7 -84 11 -120 3 -36 7 -81 9 -100 1 -19 6
-76 10 -126 3 -51 8 -105 10 -120 2 -16 6 -68 10 -117 3 -48 8 -95 10 -105 13
-68 19 -289 20 -674 l0 -448 133 0 c118 0 133 2 138 18 3 9 10 26 15 37 8 18
65 175 73 200 2 6 6 17 9 25 19 51 89 248 92 260 2 8 14 44 28 80 13 36 37
101 52 145 15 44 31 84 36 89 12 13 7428 14 7438 1 4 -5 18 -39 30 -75 28 -81
30 -89 31 -95 0 -3 7 -19 15 -35 8 -16 15 -32 15 -35 1 -3 2 -10 5 -17 14 -43
97 -276 102 -288 4 -8 7 -17 7 -20 1 -5 40 -113 54 -150 3 -8 6 -17 7 -20 1
-3 5 -14 9 -25 5 -11 14 -36 21 -55 l13 -35 133 0 132 0 3 480 c1 264 5 495 8
513 3 19 8 68 11 110 3 43 7 96 10 119 2 23 7 77 10 120 3 43 7 98 10 123 3
25 8 72 10 105 2 33 5 60 5 60 1 0 3 23 5 50 3 55 14 180 20 235 2 19 5 57 6
83 1 27 7 51 13 53 6 2 81 6 166 8 130 3 162 7 200 24 74 34 128 79 166 138
66 103 65 94 62 707 l-3 552 -31 65 c-50 106 -142 179 -259 204 -33 8 -227 11
-574 11 l-525 -1 0 -852 c0 -593 -3 -852 -10 -853 -6 0 -1629 -1 -3606 -1
l-3595 -1 0 851 c0 561 -3 852 -10 853 -5 0 -240 2 -522 2 -332 1 -531 -2
-566 -9z"/>
</g>
</svg>
